<svg width="125" height="22" viewBox="0 0 125 22" fill="none" xmlns="http://www.w3.org/2000/svg">
<path d="M13.3342 20.2259H0V0.538086H13.3342V4.06015H4.21213V8.65315H10.4682V11.9142H4.21213V16.7056H13.3342V20.2259Z" fill="#2D2E32"/>
<path d="M68.0187 20.2682H54.6846V0.573242H68.0187V4.09352H58.8985V8.69367H65.1546V11.9565H58.8985V16.7462H68.0187V20.2682Z" fill="#2D2E32"/>
<path d="M84.6351 20.2034H71.1328V0.504883H75.3431V16.6116H84.6351V20.2034Z" fill="#2D2E32"/>
<path d="M51.7089 12.2583C51.4877 11.6609 51.1326 11.1196 50.6695 10.6743C50.1453 10.1838 49.5361 9.78844 48.8703 9.50682C48.0306 9.15045 47.1544 8.88314 46.2565 8.70944L43.8381 8.20347C42.6557 7.95794 41.8075 7.64864 41.2936 7.27558C41.0499 7.11207 40.8516 6.89184 40.7164 6.63469C40.5812 6.37754 40.5134 6.09153 40.5192 5.80239C40.5146 5.44817 40.6006 5.09847 40.7694 4.7851C40.9415 4.47493 41.1855 4.20857 41.4818 4.00739C41.8144 3.78123 42.1855 3.61475 42.5777 3.51573C43.046 3.39383 43.5289 3.3337 44.0134 3.33694C45.493 3.33694 46.9086 3.9466 47.6137 5.28212C48.7279 4.64088 49.8415 3.99725 50.9545 3.35124C50.5709 2.69485 50.0603 2.11793 49.4512 1.65279C48.7293 1.10632 47.9125 0.692039 47.0401 0.429895C46.0504 0.132514 45.0194 -0.0122475 43.9842 0.000810712C42.9125 -0.012328 41.845 0.134779 40.8187 0.437046C39.9342 0.696011 39.1097 1.12109 38.3912 1.68854C37.7327 2.21668 37.2018 2.88097 36.8367 3.63372C36.4626 4.42423 36.2753 5.28708 36.2888 6.15817C36.2888 9.16176 38.1105 11.036 41.7539 11.781L44.3751 12.328C44.9127 12.4342 45.4419 12.5775 45.9588 12.7571C46.3427 12.8863 46.7066 13.0668 47.0401 13.2935C47.2971 13.4703 47.5075 13.7044 47.6538 13.9764C47.7853 14.2395 47.8517 14.5292 47.8475 14.8221C47.8509 15.1813 47.755 15.5346 47.5698 15.8448C47.3752 16.1639 47.1107 16.4368 46.7953 16.6439C46.435 16.88 46.0368 17.0553 45.6172 17.1624C45.1254 17.2882 44.6185 17.3484 44.1102 17.3412C43.561 17.3484 43.0131 17.2883 42.4791 17.1624C42.0235 17.0553 41.5882 16.8778 41.1895 16.6368C40.3986 16.1451 40.0808 15.6016 39.794 15.2387L36.4075 17.2053C37.3208 18.7232 38.8423 19.7905 40.6251 20.2965C41.6869 20.586 42.7853 20.7263 43.8874 20.7131C45.0377 20.7279 46.1841 20.5786 47.2903 20.2697C48.2209 20.0112 49.0921 19.5803 49.8567 19.0003C50.5513 18.4624 51.1069 17.7722 51.4787 16.9854C51.8668 16.1432 52.0596 15.2274 52.0431 14.3036C52.0544 13.608 51.9412 12.9158 51.7089 12.2583V12.2583Z" fill="#2D2E32"/>
<path d="M35.2072 12.7195L33.5632 9.64264C32.8375 10.0161 32.089 10.3457 31.322 10.6295L27.7364 0.537109H22.5068L18.8938 10.7279C18.1681 10.4654 17.4686 10.1381 16.8042 9.74991L14.9082 12.6945C15.804 13.2172 16.7498 13.6531 17.7321 13.9961L15.5256 20.2249H20.0921L21.6812 15.1778L21.7342 14.999C22.8216 15.1689 23.9209 15.2544 25.0221 15.2547C26.1962 15.2543 27.3683 15.1562 28.5255 14.9615L28.5912 15.1689L30.1785 20.216H34.745L32.4837 13.9156C33.416 13.5727 34.3256 13.1732 35.2072 12.7195V12.7195ZM22.7863 11.6468L24.9983 4.61877H25.2632L27.4551 11.6093C25.9049 11.8303 24.3313 11.8447 22.7772 11.6522L22.7863 11.6468Z" fill="#2D2E32"/>
<path d="M88.541 13.0723H91.3613C92.9285 13.0723 93.7359 13.7016 93.7359 14.8995V14.9388C93.7359 15.6754 93.3705 16.2153 92.5705 16.4424C93.5039 16.6212 94.0062 17.1575 94.0062 18.0926V18.1319C94.0062 19.4191 93.1422 20.0985 91.4873 20.0985H88.541V13.0723ZM91.0983 15.9596C91.8819 15.9596 92.1942 15.6861 92.1942 15.0568V15.0192C92.1942 14.4292 91.8545 14.1646 91.0983 14.1646H90.1338V15.9596H91.0983ZM91.2389 18.999C92.0426 18.999 92.4043 18.6414 92.4043 18.0067V17.9674C92.4043 17.3202 92.039 16.9859 91.1585 16.9859H90.1247V18.999H91.2389Z" fill="#058466"/>
<path d="M97.4342 17.0699L95.0596 13.0723H96.846L98.3073 15.7648L99.732 13.0723H101.308L99.0708 17.0699V20.0967H97.4269L97.4342 17.0699Z" fill="#058466"/>
<path d="M107.453 14.3041H105.515V13.0723H111.026V14.3041H109.087V20.0967H107.444L107.453 14.3041Z" fill="#058466"/>
<path d="M112.441 13.0723H114.92C116.666 13.0723 117.66 13.8285 117.66 15.3124V15.3518C117.66 16.8357 116.606 17.5419 114.969 17.5419H114.056V20.0967H112.441V13.0723ZM114.88 16.4316C115.673 16.4316 116.095 16.058 116.095 15.3589V15.3196C116.095 14.5741 115.653 14.2791 114.88 14.2791H114.056V16.4245L114.88 16.4316Z" fill="#058466"/>
<path d="M120.331 14.3041H118.395V13.0723H123.904V14.3041H121.967V20.0967H120.323L120.331 14.3041Z" fill="#058466"/>
</svg>
