<svg width="77" height="12" viewBox="0 0 77 12" fill="none" xmlns="http://www.w3.org/2000/svg">
<path d="M7.04043 11.2447H0V0.785156H7.04043V2.65632H2.22401V5.09644H5.52722V6.82894H2.22401V9.37448H7.04043V11.2447Z" fill="#2D2E32"/>
<path d="M35.914 11.2671H28.8735V0.803711H35.914V2.67393H31.0985V5.11785H34.4017V6.85129H31.0985V9.39589H35.914V11.2671Z" fill="#2D2E32"/>
<path d="M44.6875 11.2328H37.5583V0.767578H39.7814V9.32461H44.6875V11.2328Z" fill="#2D2E32"/>
<path d="M27.3023 7.01199C27.1856 6.69461 26.998 6.40704 26.7536 6.17044C26.4768 5.90983 26.1551 5.69981 25.8036 5.5502C25.3602 5.36087 24.8976 5.21885 24.4235 5.12657L23.1466 4.85777C22.5222 4.72733 22.0744 4.56301 21.8031 4.36481C21.6744 4.27794 21.5697 4.16094 21.4983 4.02432C21.4269 3.88771 21.3911 3.73576 21.3942 3.58215C21.3918 3.39396 21.4372 3.20817 21.5263 3.04169C21.6172 2.87691 21.746 2.7354 21.9024 2.62852C22.0781 2.50836 22.274 2.41992 22.4811 2.36731C22.7284 2.30255 22.9833 2.27061 23.2391 2.27233C24.0203 2.27233 24.7678 2.59622 25.1401 3.30575C25.7284 2.96507 26.3164 2.62313 26.904 2.27993C26.7015 1.9312 26.4319 1.62471 26.1103 1.37759C25.7291 1.08727 25.2979 0.867171 24.8372 0.727902C24.3147 0.569912 23.7703 0.493005 23.2237 0.499942C22.6579 0.492962 22.0942 0.571116 21.5523 0.731701C21.0853 0.869281 20.65 1.09511 20.2706 1.39658C19.9229 1.67717 19.6426 2.03009 19.4498 2.43C19.2523 2.84997 19.1534 3.30838 19.1605 3.77116C19.1605 5.36688 20.1224 6.36262 22.0461 6.75838L23.4301 7.04903C23.714 7.1054 23.9934 7.18158 24.2663 7.27699C24.469 7.34562 24.6611 7.44151 24.8372 7.56194C24.9729 7.65586 25.084 7.78023 25.1613 7.92478C25.2307 8.06455 25.2657 8.21846 25.2635 8.37405C25.2653 8.56486 25.2147 8.7526 25.1169 8.91735C25.0142 9.08691 24.8745 9.23192 24.708 9.34193C24.5177 9.46735 24.3075 9.56046 24.0859 9.61738C23.8263 9.68424 23.5586 9.71619 23.2903 9.71236C23.0003 9.71618 22.7109 9.68427 22.429 9.61738C22.1884 9.56046 21.9586 9.46619 21.7481 9.33813C21.3305 9.07692 21.1627 8.78817 21.0113 8.59536L19.2232 9.64017C19.7054 10.4466 20.5088 11.0136 21.4501 11.2824C22.0107 11.4363 22.5907 11.5108 23.1726 11.5037C23.78 11.5116 24.3852 11.4323 24.9694 11.2682C25.4607 11.1309 25.9207 10.9019 26.3244 10.5938C26.6911 10.3081 26.9845 9.94136 27.1808 9.52334C27.3857 9.07592 27.4875 8.58936 27.4788 8.0986C27.4848 7.72903 27.425 7.36129 27.3023 7.01199Z" fill="#2D2E32"/>
<path d="M18.5897 7.25731L17.7217 5.62265C17.3385 5.82106 16.9433 5.99616 16.5383 6.14696L14.6451 0.785156H11.8839L9.97624 6.1992C9.59303 6.05978 9.22369 5.88586 8.87292 5.67964L7.87183 7.24401C8.34483 7.5217 8.8442 7.75329 9.36285 7.93549L8.19781 11.2447H10.6089L11.448 8.56333L11.4759 8.46834C12.0501 8.55861 12.6305 8.60403 13.2119 8.60417C13.8319 8.60394 14.4507 8.55183 15.0617 8.4484L15.0965 8.55858L15.9346 11.24H18.3457L17.1517 7.89275C17.644 7.71056 18.1242 7.49833 18.5897 7.25731ZM12.0315 6.68741L13.1994 2.95362H13.3393L14.4966 6.66746C13.6781 6.7849 12.8472 6.79256 12.0266 6.69026L12.0315 6.68741Z" fill="#2D2E32"/>
<path d="M46.7495 5.44434H49.143C50.4731 5.44434 51.1583 5.98174 51.1583 7.00464V7.03823C51.1583 7.66724 50.8483 8.1283 50.1693 8.3222C50.9614 8.47487 51.3877 8.93289 51.3877 9.73136V9.76495C51.3877 10.8642 50.6545 11.4443 49.25 11.4443H46.7495V5.44434ZM48.9198 7.90998C49.5848 7.90998 49.8499 7.6764 49.8499 7.13899V7.10693C49.8499 6.60311 49.5616 6.37716 48.9198 6.37716H48.1013V7.90998H48.9198ZM49.0392 10.5054C49.7213 10.5054 50.0282 10.2001 50.0282 9.65808V9.62449C50.0282 9.07182 49.7182 8.78632 48.971 8.78632H48.0935V10.5054H49.0392Z" fill="#2D2E32"/>
<path d="M54.2975 8.85808L52.2822 5.44434H53.7983L55.0385 7.74357L56.2477 5.44434H57.5855L55.6865 8.85808V11.4428H54.2913L54.2975 8.85808Z" fill="#2D2E32"/>
<path d="M62.8 6.49624H61.1553V5.44434H65.8322V6.49624H64.1875V11.4428H62.7923L62.8 6.49624Z" fill="#2D2E32"/>
<path d="M67.0337 5.44434H69.1373C70.6193 5.44434 71.4626 6.09014 71.4626 7.35731V7.3909C71.4626 8.65808 70.5682 9.26113 69.1792 9.26113H68.4041V11.4428H67.0337V5.44434ZM69.1032 8.31304C69.776 8.31304 70.1341 7.99395 70.1341 7.39701V7.36342C70.1341 6.72678 69.7589 6.47487 69.1032 6.47487H68.4041V8.30693L69.1032 8.31304Z" fill="#2D2E32"/>
<path d="M73.7289 6.49624H72.0857V5.44434H76.7611V6.49624H75.1179V11.4428H73.7227L73.7289 6.49624Z" fill="#2D2E32"/>
</svg>
