<svg width="30" height="30" viewBox="0 0 30 30" fill="none" xmlns="http://www.w3.org/2000/svg">
<rect x="1" y="14" width="20" height="15" rx="2" stroke="#2E2E33" stroke-width="1.5"/>
<path d="M13.8148 23.3773C13.8148 23.5261 13.7627 23.6526 13.6585 23.7568L12.8996 24.5157C12.7954 24.6199 12.6689 24.6719 12.5201 24.6719C12.3713 24.6719 12.2448 24.6199 12.1407 24.5157L10.5 22.8751L8.85941 24.5157C8.75524 24.6199 8.62875 24.6719 8.47995 24.6719C8.33114 24.6719 8.20465 24.6199 8.10048 24.5157L7.34155 23.7568C7.23739 23.6526 7.1853 23.5261 7.1853 23.3773C7.1853 23.2285 7.23739 23.102 7.34155 22.9978L8.98218 21.3572L7.34155 19.7166C7.23739 19.6124 7.1853 19.4859 7.1853 19.3371C7.1853 19.1883 7.23739 19.0618 7.34155 18.9577L8.10048 18.1987C8.20465 18.0946 8.33114 18.0425 8.47995 18.0425C8.62875 18.0425 8.75524 18.0946 8.85941 18.1987L10.5 19.8394L12.1407 18.1987C12.2448 18.0946 12.3713 18.0425 12.5201 18.0425C12.6689 18.0425 12.7954 18.0946 12.8996 18.1987L13.6585 18.9577C13.7627 19.0618 13.8148 19.1883 13.8148 19.3371C13.8148 19.4859 13.7627 19.6124 13.6585 19.7166L12.0179 21.3572L13.6585 22.9978C13.7627 23.102 13.8148 23.2285 13.8148 23.3773Z" fill="black"/>
<rect x="9" y="1" width="20" height="15" rx="2" fill="#CED7F8" stroke="#677DCA" stroke-width="1.5"/>
<path d="M23.3248 6.65841C23.3248 6.80722 23.2728 6.93371 23.1686 7.03788L19.1284 11.0781L18.3695 11.837C18.2653 11.9412 18.1388 11.9932 17.99 11.9932C17.8412 11.9932 17.7147 11.9412 17.6106 11.837L16.8516 11.0781L14.8315 9.05797C14.7274 8.9538 14.6753 8.82731 14.6753 8.6785C14.6753 8.52969 14.7274 8.4032 14.8315 8.29904L15.5905 7.54011C15.6946 7.43594 15.8211 7.38386 15.9699 7.38386C16.1187 7.38386 16.2452 7.43594 16.3494 7.54011L17.99 9.18631L21.6507 5.52002C21.7549 5.41585 21.8814 5.36377 22.0302 5.36377C22.179 5.36377 22.3055 5.41585 22.4097 5.52002L23.1686 6.27895C23.2728 6.38311 23.3248 6.5096 23.3248 6.65841Z" fill="#2E2E33"/>
</svg>
