  <svg  xmlns="http://www.w3.org/2000/svg" viewBox="0 0 911 229">
    <path d="M143.434 222.705H0V5.915h143.434v38.783H45.31v50.575h67.296v35.909H45.31v52.76h98.124v38.763zM731.672 223.177H588.237V6.309h143.435v38.763h-98.105v50.653h67.296v35.929h-67.296v52.74h98.105v38.783zM910.413 222.468H765.171V5.56h45.29v177.358h99.952v39.55zM556.232 134.981a46.826 46.826 0 00-11.18-17.443 65.761 65.761 0 00-19.354-12.855 137.715 137.715 0 00-28.117-8.78l-26.015-5.572c-12.719-2.703-21.842-6.109-27.37-10.217a19.206 19.206 0 01-6.21-7.057 19.244 19.244 0 01-2.121-9.165 23.42 23.42 0 012.692-11.202 24.847 24.847 0 017.663-8.563 36.72 36.72 0 0111.789-5.414 58.422 58.422 0 0115.444-1.969c15.915 0 31.143 6.713 38.727 21.42a11127.888 11127.888 0 0035.937-21.262 64.028 64.028 0 00-16.171-18.703A81.417 81.417 0 00506.01 4.734 107.105 107.105 0 00473.138.009a113.05 113.05 0 00-34.051 4.803 76.45 76.45 0 00-26.113 13.781 62.147 62.147 0 00-16.721 21.42 63.944 63.944 0 00-5.894 27.797c0 33.073 19.596 53.712 58.788 61.914l28.196 6.025a124.251 124.251 0 0117.035 4.724 47.38 47.38 0 0111.632 5.906 21.332 21.332 0 016.602 7.521 20.562 20.562 0 012.083 9.311 21.942 21.942 0 01-2.987 11.261 27.634 27.634 0 01-8.331 8.8 41.647 41.647 0 01-12.673 5.709 60.508 60.508 0 01-16.21 1.969 70.72 70.72 0 01-17.546-1.969 47.421 47.421 0 01-13.872-5.788c-8.508-5.413-11.927-11.398-15.012-15.395l-36.428 21.656c9.824 16.714 26.192 28.467 45.369 34.038a124.807 124.807 0 0035.092 4.587 127.076 127.076 0 0036.605-4.882 81.255 81.255 0 0027.606-13.978 60.845 60.845 0 0017.448-22.187 69.023 69.023 0 006.072-29.53 65.841 65.841 0 00-3.596-22.521zM378.725 140.061l-17.683-33.881a215.858 215.858 0 01-24.109 10.867L298.363 5.916h-56.254L203.244 118.13a135.34 135.34 0 01-22.478-10.769l-20.395 32.424a172.428 172.428 0 0030.377 14.332l-23.736 68.588h49.122l17.094-55.575.57-1.969a224.256 224.256 0 0035.367 2.815 222.539 222.539 0 0037.686-3.228l.707 2.283 17.075 55.576h49.121l-24.325-69.376a257.642 257.642 0 0029.296-13.17zm-133.61-11.812L268.91 50.86h2.849l23.578 76.975a186.201 186.201 0 01-50.32.473l.098-.059z" />
  </svg>